<?xml version="1.0" encoding="UTF-8"?><svg xmlns="http://www.w3.org/2000/svg" xmlns:xlink="http://www.w3.org/1999/xlink" viewBox="0 0 193.36 120"><defs><filter id="drop-shadow-1" filterUnits="userSpaceOnUse"><feOffset dx="3" dy="3"/><feGaussianBlur result="blur" stdDeviation="3"/><feFlood flood-color="#fff" flood-opacity="1"/><feComposite in2="blur" operator="in"/><feComposite in="SourceGraphic"/></filter><filter id="drop-shadow-5" filterUnits="userSpaceOnUse"><feOffset dx="-3" dy="-3"/><feGaussianBlur result="blur-2" stdDeviation="3"/><feFlood flood-color="#000" flood-opacity=".1"/><feComposite in2="blur-2" operator="in"/><feComposite in="SourceGraphic"/></filter></defs><g id="SOTTO"><path d="m77.28,33.7c-4.86-2.12-10.92-2.85-16.61-1.74-5.69,1.11-11.03,4.05-14.75,7.84-3.79,3.71-6.73,9.05-7.84,14.75-1.11,5.69-.38,11.75,1.74,16.61l37.46-37.46Zm99.96-23.7v21.43c-7.31-.1-15.1,3.13-20.2,8.37-5.24,5.1-8.47,12.89-8.37,20.2v50h-21.43v-40.41l-25.76,25.76c-6.7,6.86-16.52,12.15-26.93,13.93-10.41,1.78-21.42.05-30.03-4.19-8.7-4.04-16.95-11.54-22.09-20.77-5.14-9.23-7.17-20.19-6.02-29.71.92-9.55,5.25-19.82,12.25-27.73s16.66-13.47,26.02-15.55c9.31-2.3,20.44-1.63,30.23,2.34,9.79,3.97,18.24,11.24,23.32,19.38l-53.26,53.26c4.86,2.12,10.92,2.85,16.61,1.74,5.69-1.11,11.03-4.05,14.75-7.84l55.56-55.56c4.49-4.52,10.1-8.3,16.22-10.84,6.12-2.54,12.76-3.82,19.13-3.81Z" style="fill:#f0f0f0; filter:url(#drop-shadow-1);"/></g><g id="SOPRA"><path d="m77.28,33.7c-4.86-2.12-10.92-2.85-16.61-1.74-5.69,1.11-11.03,4.05-14.75,7.84-3.79,3.71-6.73,9.05-7.84,14.75-1.11,5.69-.38,11.75,1.74,16.61l37.46-37.46Zm99.96-23.7v21.43c-7.31-.1-15.1,3.13-20.2,8.37-5.24,5.1-8.47,12.89-8.37,20.2v50h-21.43v-40.41l-25.76,25.76c-6.7,6.86-16.52,12.15-26.93,13.93-10.41,1.78-21.42.05-30.03-4.19-8.7-4.04-16.95-11.54-22.09-20.77-5.14-9.23-7.17-20.19-6.02-29.71.92-9.55,5.25-19.82,12.25-27.73s16.66-13.47,26.02-15.55c9.31-2.3,20.44-1.63,30.23,2.34,9.79,3.97,18.24,11.24,23.32,19.38l-53.26,53.26c4.86,2.12,10.92,2.85,16.61,1.74,5.69-1.11,11.03-4.05,14.75-7.84l55.56-55.56c4.49-4.52,10.1-8.3,16.22-10.84,6.12-2.54,12.76-3.82,19.13-3.81Z" style="fill:#f0f0f0; filter:url(#drop-shadow-5);"/></g></svg>